
<global>
amp_veltrack=0
ampeg_attack=0.01
ampeg_decay=0.75
ampeg_release=0.85
ampeg_sustain=0
</global>

<group>
group_label=RR1_0-42
seq_length=4
seq_position=1
xf_cccurve=gain
xfin_hicc1=42
xfout_hicc1=84
xfout_locc1=42

<region>
end=45600
fade_out=44750
hivel=127
key=A#3
lovel=0
sample=Violas_staccato_PP_A#3_RR1.opus
</region>

<region>
end=45600
fade_out=44750
hivel=127
key=A#4
lovel=0
sample=Violas_staccato_PP_A#4_RR1.opus
</region>

<region>
end=45600
fade_out=44750
hivel=127
key=A#5
lovel=0
sample=Violas_staccato_PP_A#5_RR1.opus
</region>

<region>
end=45600
fade_out=44750
hivel=127
key=A3
lovel=0
sample=Violas_staccato_PP_A3_RR1.opus
</region>

<region>
end=45600
fade_out=44750
hivel=127
key=A4
lovel=0
sample=Violas_staccato_PP_A4_RR1.opus
</region>

<region>
end=45600
fade_out=44750
hivel=127
key=A5
lovel=0
sample=Violas_staccato_PP_A5_RR1.opus
</region>

<region>
end=45600
fade_out=44750
hivel=127
key=B3
lovel=0
sample=Violas_staccato_PP_B3_RR1.opus
</region>

<region>
end=45600
fade_out=44750
hivel=127
key=B4
lovel=0
sample=Violas_staccato_PP_B4_RR1.opus
</region>

<region>
end=45600
fade_out=44750
hivel=127
key=B5
lovel=0
sample=Violas_staccato_PP_B5_RR1.opus
</region>

<region>
end=45600
fade_out=44750
hivel=127
key=C#3
lovel=0
sample=Violas_staccato_PP_C#3_RR1.opus
</region>

<region>
end=45600
fade_out=44750
hivel=127
key=C#4
lovel=0
sample=Violas_staccato_PP_C#4_RR1.opus
</region>

<region>
end=45600
fade_out=44750
hivel=127
key=C#5
lovel=0
sample=Violas_staccato_PP_C#5_RR1.opus
</region>

<region>
end=45600
fade_out=44750
hivel=127
key=C3
lovel=0
sample=Violas_staccato_PP_C3_RR1.opus
</region>

<region>
end=45600
fade_out=44750
hivel=127
key=C4
lovel=0
sample=Violas_staccato_PP_C4_RR1.opus
</region>

<region>
end=45600
fade_out=44750
hivel=127
key=C5
lovel=0
sample=Violas_staccato_PP_C5_RR1.opus
</region>

<region>
end=45600
fade_out=44750
hikey=C#6
hivel=127
lokey=C6
lovel=0
pitch_keycenter=C6
sample=Violas_staccato_PP_C6_RR1.opus
</region>

<region>
end=45600
fade_out=44750
hivel=127
key=D#3
lovel=0
sample=Violas_staccato_PP_D#3_RR1.opus
</region>

<region>
end=45600
fade_out=44750
hivel=127
key=D#4
lovel=0
sample=Violas_staccato_PP_D#4_RR1.opus
</region>

<region>
end=45600
fade_out=44750
hivel=127
key=D#5
lovel=0
sample=Violas_staccato_PP_D#5_RR1.opus
</region>

<region>
end=45600
fade_out=44750
hivel=127
key=D3
lovel=0
sample=Violas_staccato_PP_D3_RR1.opus
</region>

<region>
end=45600
fade_out=44750
hivel=127
key=D4
lovel=0
offset=1673
sample=Violas_staccato_PP_D4_RR1.opus
</region>

<region>
end=45600
fade_out=44750
hivel=127
key=D5
lovel=0
offset=1161
sample=Violas_staccato_PP_D5_RR1.opus
</region>

<region>
end=45600
fade_out=44750
hivel=127
key=E3
lovel=0
sample=Violas_staccato_PP_E3_RR1.opus
</region>

<region>
end=45600
fade_out=44750
hivel=127
key=E4
lovel=0
sample=Violas_staccato_PP_E4_RR1.opus
</region>

<region>
end=45600
fade_out=44750
hivel=127
key=E5
lovel=0
sample=Violas_staccato_PP_E5_RR1.opus
</region>

<region>
end=45600
fade_out=44750
hivel=127
key=F#3
lovel=0
sample=Violas_staccato_PP_F#3_RR1.opus
</region>

<region>
end=45600
fade_out=44750
hivel=127
key=F#4
lovel=0
sample=Violas_staccato_PP_F#4_RR1.opus
</region>

<region>
end=45600
fade_out=44750
hivel=127
key=F#5
lovel=0
sample=Violas_staccato_PP_F#5_RR1.opus
</region>

<region>
end=45600
fade_out=44750
hivel=127
key=F3
lovel=0
sample=Violas_staccato_PP_F3_RR1.opus
</region>

<region>
end=45600
fade_out=44750
hivel=127
key=F4
lovel=0
sample=Violas_staccato_PP_F4_RR1.opus
</region>

<region>
end=45600
fade_out=44750
hivel=127
key=F5
lovel=0
sample=Violas_staccato_PP_F5_RR1.opus
</region>

<region>
end=45600
fade_out=44750
hivel=127
key=G#3
lovel=0
sample=Violas_staccato_PP_G#3_RR1.opus
</region>

<region>
end=45600
fade_out=44750
hivel=127
key=G#4
lovel=0
sample=Violas_staccato_PP_G#4_RR1.opus
</region>

<region>
end=45600
fade_out=44750
hivel=127
key=G#5
lovel=0
sample=Violas_staccato_PP_G#5_RR1.opus
</region>

<region>
end=45600
fade_out=44750
hivel=127
key=G3
lovel=0
sample=Violas_staccato_PP_G3_RR1.opus
</region>

<region>
end=45600
fade_out=44750
hivel=127
key=G4
lovel=0
sample=Violas_staccato_PP_G4_RR1.opus
</region>

<region>
end=45600
fade_out=44750
hivel=127
key=G5
lovel=0
sample=Violas_staccato_PP_G5_RR1.opus
</region>
</group>

<group>
group_label=RR1_43-84
seq_length=4
seq_position=1
xf_cccurve=gain
xfin_hicc1=84
xfin_locc1=43
xfout_hicc1=125
xfout_locc1=84

<region>
end=45600
fade_out=44750
hivel=127
key=A#3
lovel=0
sample=Violas_staccato_MF_A#3_RR1.opus
</region>

<region>
end=45600
fade_out=44750
hivel=127
key=A#4
lovel=0
sample=Violas_staccato_MF_A#4_RR1.opus
</region>

<region>
end=45600
fade_out=44750
hivel=127
key=A#5
lovel=0
sample=Violas_staccato_MF_A#5_RR1.opus
</region>

<region>
end=45600
fade_out=44750
hivel=127
key=A3
lovel=0
sample=Violas_staccato_MF_A3_RR1.opus
</region>

<region>
end=45600
fade_out=44750
hivel=127
key=A4
lovel=0
sample=Violas_staccato_MF_A4_RR1.opus
</region>

<region>
end=45600
fade_out=44750
hivel=127
key=A5
lovel=0
sample=Violas_staccato_MF_A5_RR1.opus
</region>

<region>
end=45600
fade_out=44750
hivel=127
key=B3
lovel=0
sample=Violas_staccato_MF_B3_RR1.opus
</region>

<region>
end=45600
fade_out=44750
hivel=127
key=B4
lovel=0
sample=Violas_staccato_MF_B4_RR1.opus
</region>

<region>
end=45600
fade_out=44750
hivel=127
key=B5
lovel=0
sample=Violas_staccato_MF_B5_RR1.opus
</region>

<region>
end=45600
fade_out=44750
hivel=127
key=C#3
lovel=0
sample=Violas_staccato_MF_C#3_RR1.opus
</region>

<region>
end=45600
fade_out=44750
hivel=127
key=C#4
lovel=0
sample=Violas_staccato_MF_C#4_RR1.opus
</region>

<region>
end=45600
fade_out=44750
hivel=127
key=C#5
lovel=0
sample=Violas_staccato_MF_C#5_RR1.opus
</region>

<region>
end=45600
fade_out=44750
hivel=127
key=C3
lovel=0
sample=Violas_staccato_MF_C3_RR1.opus
</region>

<region>
end=45600
fade_out=44750
hivel=127
key=C4
lovel=0
sample=Violas_staccato_MF_C4_RR1.opus
</region>

<region>
end=45600
fade_out=44750
hivel=127
key=C5
lovel=0
sample=Violas_staccato_MF_C5_RR1.opus
</region>

<region>
end=45600
fade_out=44750
hikey=C#6
hivel=127
lokey=C6
lovel=0
pitch_keycenter=C6
sample=Violas_staccato_MF_C6_RR1.opus
</region>

<region>
end=45600
fade_out=44750
hivel=127
key=D#3
lovel=0
sample=Violas_staccato_MF_D#3_RR1.opus
</region>

<region>
end=45600
fade_out=44750
hivel=127
key=D#4
lovel=0
sample=Violas_staccato_MF_D#4_RR1.opus
</region>

<region>
end=45600
fade_out=44750
hivel=127
key=D#5
lovel=0
sample=Violas_staccato_MF_D#5_RR1.opus
</region>

<region>
end=45600
fade_out=44750
hivel=127
key=D3
lovel=0
sample=Violas_staccato_MF_D3_RR1.opus
</region>

<region>
end=45600
fade_out=44750
hivel=127
key=D4
lovel=0
sample=Violas_staccato_MF_D4_RR1.opus
</region>

<region>
end=45600
fade_out=44750
hivel=127
key=D5
lovel=0
sample=Violas_staccato_MF_D5_RR1.opus
</region>

<region>
end=45600
fade_out=44750
hivel=127
key=E3
lovel=0
sample=Violas_staccato_MF_E3_RR1.opus
</region>

<region>
end=45600
fade_out=44750
hivel=127
key=E4
lovel=0
sample=Violas_staccato_MF_E4_RR1.opus
</region>

<region>
end=45600
fade_out=44750
hivel=127
key=E5
lovel=0
sample=Violas_staccato_MF_E5_RR1.opus
</region>

<region>
end=45600
fade_out=44750
hivel=127
key=F#3
lovel=0
sample=Violas_staccato_MF_F#3_RR1.opus
</region>

<region>
end=45600
fade_out=44750
hivel=127
key=F#4
lovel=0
sample=Violas_staccato_MF_F#4_RR1.opus
</region>

<region>
end=45600
fade_out=44750
hivel=127
key=F#5
lovel=0
sample=Violas_staccato_MF_F#5_RR1.opus
</region>

<region>
end=45600
fade_out=44750
hivel=127
key=F3
lovel=0
sample=Violas_staccato_MF_F3_RR1.opus
</region>

<region>
end=45600
fade_out=44750
hivel=127
key=F4
lovel=0
sample=Violas_staccato_MF_F4_RR1.opus
</region>

<region>
end=45600
fade_out=44750
hivel=127
key=F5
lovel=0
sample=Violas_staccato_MF_F5_RR1.opus
</region>

<region>
end=45600
fade_out=44750
hivel=127
key=G#3
lovel=0
sample=Violas_staccato_MF_G#3_RR1.opus
</region>

<region>
end=45600
fade_out=44750
hivel=127
key=G#4
lovel=0
sample=Violas_staccato_MF_G#4_RR1.opus
</region>

<region>
end=45600
fade_out=44750
hivel=127
key=G#5
lovel=0
sample=Violas_staccato_MF_G#5_RR1.opus
</region>

<region>
end=45600
fade_out=44750
hivel=127
key=G3
lovel=0
sample=Violas_staccato_MF_G3_RR1.opus
</region>

<region>
end=45600
fade_out=44750
hivel=127
key=G4
lovel=0
sample=Violas_staccato_MF_G4_RR1.opus
</region>

<region>
end=45600
fade_out=44750
hivel=127
key=G5
lovel=0
sample=Violas_staccato_MF_G5_RR1.opus
</region>
</group>

<group>
group_label=RR1_85-127
seq_length=4
seq_position=1
xf_cccurve=gain
xfin_hicc1=127
xfin_locc1=85
xfout_hicc1=127
xfout_locc1=127

<region>
end=45600
fade_out=44750
hivel=127
key=A#3
lovel=0
sample=Violas_staccato_FF_A#3_RR1.opus
</region>

<region>
end=45600
fade_out=44750
hivel=127
key=A#4
lovel=0
sample=Violas_staccato_FF_A#4_RR1.opus
</region>

<region>
end=45600
fade_out=44750
hivel=127
key=A#5
lovel=0
sample=Violas_staccato_FF_A#5_RR1.opus
</region>

<region>
end=45600
fade_out=44750
hivel=127
key=A3
lovel=0
sample=Violas_staccato_FF_A3_RR1.opus
</region>

<region>
end=45600
fade_out=44750
hivel=127
key=A4
lovel=0
sample=Violas_staccato_FF_A4_RR1.opus
</region>

<region>
end=45600
fade_out=44750
hivel=127
key=A5
lovel=0
sample=Violas_staccato_FF_A5_RR1.opus
</region>

<region>
end=45600
fade_out=44750
hivel=127
key=B3
lovel=0
sample=Violas_staccato_FF_B3_RR1.opus
</region>

<region>
end=45600
fade_out=44750
hivel=127
key=B4
lovel=0
sample=Violas_staccato_FF_B4_RR1.opus
</region>

<region>
end=45600
fade_out=44750
hivel=127
key=B5
lovel=0
sample=Violas_staccato_FF_B5_RR1.opus
</region>

<region>
end=45600
fade_out=44750
hivel=127
key=C#3
lovel=0
offset=667
sample=Violas_staccato_FF_C#3_RR1.opus
</region>

<region>
end=45600
fade_out=44750
hivel=127
key=C#4
lovel=0
sample=Violas_staccato_FF_C#4_RR1.opus
</region>

<region>
end=45600
fade_out=44750
hivel=127
key=C#5
lovel=0
sample=Violas_staccato_FF_C#5_RR1.opus
</region>

<region>
end=45600
fade_out=44750
hivel=127
key=C3
lovel=0
sample=Violas_staccato_FF_C3_RR1.opus
</region>

<region>
end=45600
fade_out=44750
hivel=127
key=C4
lovel=0
sample=Violas_staccato_FF_C4_RR1.opus
</region>

<region>
end=45600
fade_out=44750
hivel=127
key=C5
lovel=0
sample=Violas_staccato_FF_C5_RR1.opus
</region>

<region>
end=45600
fade_out=44750
hikey=C#6
hivel=127
lokey=C6
lovel=0
pitch_keycenter=C6
sample=Violas_staccato_FF_C6_RR1.opus
</region>

<region>
end=45600
fade_out=44750
hivel=127
key=D#3
lovel=0
sample=Violas_staccato_FF_D#3_RR1.opus
</region>

<region>
end=45600
fade_out=44750
hivel=127
key=D#4
lovel=0
sample=Violas_staccato_FF_D#4_RR1.opus
</region>

<region>
end=45600
fade_out=44750
hivel=127
key=D#5
lovel=0
sample=Violas_staccato_FF_D#5_RR1.opus
</region>

<region>
end=45600
fade_out=44750
hivel=127
key=D3
lovel=0
offset=605
sample=Violas_staccato_FF_D3_RR1.opus
</region>

<region>
end=45600
fade_out=44750
hivel=127
key=D4
lovel=0
sample=Violas_staccato_FF_D4_RR1.opus
</region>

<region>
end=45600
fade_out=44750
hivel=127
key=D5
lovel=0
sample=Violas_staccato_FF_D5_RR1.opus
</region>

<region>
end=45600
fade_out=44750
hivel=127
key=E3
lovel=0
sample=Violas_staccato_FF_E3_RR1.opus
</region>

<region>
end=45600
fade_out=44750
hivel=127
key=E4
lovel=0
sample=Violas_staccato_FF_E4_RR1.opus
</region>

<region>
end=45600
fade_out=44750
hivel=127
key=E5
lovel=0
sample=Violas_staccato_FF_E5_RR1.opus
</region>

<region>
end=45600
fade_out=44750
hivel=127
key=F#3
lovel=0
sample=Violas_staccato_FF_F#3_RR1.opus
</region>

<region>
end=45600
fade_out=44750
hivel=127
key=F#4
lovel=0
sample=Violas_staccato_FF_F#4_RR1.opus
</region>

<region>
end=45600
fade_out=44750
hivel=127
key=F#5
lovel=0
sample=Violas_staccato_FF_F#5_RR1.opus
</region>

<region>
end=45600
fade_out=44750
hivel=127
key=F3
lovel=0
sample=Violas_staccato_FF_F3_RR1.opus
</region>

<region>
end=45600
fade_out=44750
hivel=127
key=F4
lovel=0
sample=Violas_staccato_FF_F4_RR1.opus
</region>

<region>
end=45600
fade_out=44750
hivel=127
key=F5
lovel=0
sample=Violas_staccato_FF_F5_RR1.opus
</region>

<region>
end=45600
fade_out=44750
hivel=127
key=G#3
lovel=0
sample=Violas_staccato_FF_G#3_RR1.opus
</region>

<region>
end=45600
fade_out=44750
hivel=127
key=G#4
lovel=0
sample=Violas_staccato_FF_G#4_RR1.opus
</region>

<region>
end=45600
fade_out=44750
hivel=127
key=G#5
lovel=0
sample=Violas_staccato_FF_G#5_RR1.opus
</region>

<region>
end=45600
fade_out=44750
hivel=127
key=G3
lovel=0
sample=Violas_staccato_FF_G3_RR1.opus
</region>

<region>
end=45600
fade_out=44750
hivel=127
key=G4
lovel=0
sample=Violas_staccato_FF_G4_RR1.opus
</region>

<region>
end=45600
fade_out=44750
hivel=127
key=G5
lovel=0
sample=Violas_staccato_FF_G5_RR1.opus
</region>
</group>

<group>
group_label=RR2_0-42
seq_length=4
seq_position=2
xf_cccurve=gain
xfin_hicc1=42
xfout_hicc1=84
xfout_locc1=42

<region>
end=45600
fade_out=44750
hivel=127
key=A#3
lovel=0
sample=Violas_staccato_PP_A#3_RR2.opus
</region>

<region>
end=45600
fade_out=44750
hivel=127
key=A#4
lovel=0
sample=Violas_staccato_PP_A#4_RR2.opus
</region>

<region>
end=45600
fade_out=44750
hivel=127
key=A#5
lovel=0
sample=Violas_staccato_PP_A#5_RR2.opus
</region>

<region>
end=45600
fade_out=44750
hivel=127
key=A3
lovel=0
sample=Violas_staccato_PP_A3_RR2.opus
</region>

<region>
end=45600
fade_out=44750
hivel=127
key=A4
lovel=0
sample=Violas_staccato_PP_A4_RR2.opus
</region>

<region>
end=45600
fade_out=44750
hivel=127
key=A5
lovel=0
sample=Violas_staccato_PP_A5_RR2.opus
</region>

<region>
end=45600
fade_out=44750
hivel=127
key=B3
lovel=0
sample=Violas_staccato_PP_B3_RR2.opus
</region>

<region>
end=45600
fade_out=44750
hivel=127
key=B4
lovel=0
sample=Violas_staccato_PP_B4_RR2.opus
</region>

<region>
end=45600
fade_out=44750
hivel=127
key=B5
lovel=0
sample=Violas_staccato_PP_B5_RR2.opus
</region>

<region>
end=45600
fade_out=44750
hivel=127
key=C#3
lovel=0
sample=Violas_staccato_PP_C#3_RR2.opus
</region>

<region>
end=45600
fade_out=44750
hivel=127
key=C#4
lovel=0
sample=Violas_staccato_PP_C#4_RR2.opus
</region>

<region>
end=45600
fade_out=44750
hivel=127
key=C#5
lovel=0
sample=Violas_staccato_PP_C#5_RR2.opus
</region>

<region>
end=45600
fade_out=44750
hivel=127
key=C3
lovel=0
offset=4129
sample=Violas_staccato_PP_C3_RR2.opus
</region>

<region>
end=45600
fade_out=44750
hivel=127
key=C4
lovel=0
sample=Violas_staccato_PP_C4_RR2.opus
</region>

<region>
end=45600
fade_out=44750
hivel=127
key=C5
lovel=0
sample=Violas_staccato_PP_C5_RR2.opus
</region>

<region>
end=45600
fade_out=44750
hikey=C#6
hivel=127
lokey=C6
lovel=0
pitch_keycenter=C6
sample=Violas_staccato_PP_C6_RR2.opus
</region>

<region>
end=45600
fade_out=44750
hivel=127
key=D#3
lovel=0
sample=Violas_staccato_PP_D#3_RR2.opus
</region>

<region>
end=45600
fade_out=44750
hivel=127
key=D#4
lovel=0
sample=Violas_staccato_PP_D#4_RR2.opus
</region>

<region>
end=45600
fade_out=44750
hivel=127
key=D#5
lovel=0
sample=Violas_staccato_PP_D#5_RR2.opus
</region>

<region>
end=45600
fade_out=44750
hivel=127
key=D3
lovel=0
offset=4168
sample=Violas_staccato_PP_D3_RR2.opus
</region>

<region>
end=45600
fade_out=44750
hivel=127
key=D4
lovel=0
offset=2148
sample=Violas_staccato_PP_D4_RR2.opus
</region>

<region>
end=45600
fade_out=44750
hivel=127
key=D5
lovel=0
sample=Violas_staccato_PP_D5_RR2.opus
</region>

<region>
end=45600
fade_out=44750
hivel=127
key=E3
lovel=0
sample=Violas_staccato_PP_E3_RR2.opus
</region>

<region>
end=45600
fade_out=44750
hivel=127
key=E4
lovel=0
sample=Violas_staccato_PP_E4_RR2.opus
</region>

<region>
end=45600
fade_out=44750
hivel=127
key=E5
lovel=0
sample=Violas_staccato_PP_E5_RR2.opus
</region>

<region>
end=45600
fade_out=44750
hivel=127
key=F#3
lovel=0
sample=Violas_staccato_PP_F#3_RR2.opus
</region>

<region>
end=45600
fade_out=44750
hivel=127
key=F#4
lovel=0
sample=Violas_staccato_PP_F#4_RR2.opus
</region>

<region>
end=45600
fade_out=44750
hivel=127
key=F#5
lovel=0
sample=Violas_staccato_PP_F#5_RR2.opus
</region>

<region>
end=45600
fade_out=44750
hivel=127
key=F3
lovel=0
sample=Violas_staccato_PP_F3_RR2.opus
</region>

<region>
end=45600
fade_out=44750
hivel=127
key=F4
lovel=0
sample=Violas_staccato_PP_F4_RR2.opus
</region>

<region>
end=45600
fade_out=44750
hivel=127
key=F5
lovel=0
sample=Violas_staccato_PP_F5_RR2.opus
</region>

<region>
end=45600
fade_out=44750
hivel=127
key=G#3
lovel=0
sample=Violas_staccato_PP_G#3_RR2.opus
</region>

<region>
end=45600
fade_out=44750
hivel=127
key=G#4
lovel=0
sample=Violas_staccato_PP_G#4_RR2.opus
</region>

<region>
end=45600
fade_out=44750
hivel=127
key=G#5
lovel=0
sample=Violas_staccato_PP_G#5_RR2.opus
</region>

<region>
end=45600
fade_out=44750
hivel=127
key=G3
lovel=0
sample=Violas_staccato_PP_G3_RR2.opus
</region>

<region>
end=45600
fade_out=44750
hivel=127
key=G4
lovel=0
sample=Violas_staccato_PP_G4_RR2.opus
</region>

<region>
end=45600
fade_out=44750
hivel=127
key=G5
lovel=0
sample=Violas_staccato_PP_G5_RR2.opus
</region>
</group>

<group>
group_label=RR2_43-84
seq_length=4
seq_position=2
xf_cccurve=gain
xfin_hicc1=84
xfin_locc1=43
xfout_hicc1=125
xfout_locc1=84

<region>
end=45600
fade_out=44750
hivel=127
key=A#3
lovel=0
sample=Violas_staccato_MF_A#3_RR2.opus
</region>

<region>
end=45600
fade_out=44750
hivel=127
key=A#4
lovel=0
sample=Violas_staccato_MF_A#4_RR2.opus
</region>

<region>
end=45600
fade_out=44750
hivel=127
key=A#5
lovel=0
sample=Violas_staccato_MF_A#5_RR2.opus
</region>

<region>
end=45600
fade_out=44750
hivel=127
key=A3
lovel=0
sample=Violas_staccato_MF_A3_RR2.opus
</region>

<region>
end=45600
fade_out=44750
hivel=127
key=A4
lovel=0
sample=Violas_staccato_MF_A4_RR2.opus
</region>

<region>
end=45600
fade_out=44750
hivel=127
key=A5
lovel=0
sample=Violas_staccato_MF_A5_RR2.opus
</region>

<region>
end=45600
fade_out=44750
hivel=127
key=B3
lovel=0
sample=Violas_staccato_MF_B3_RR2.opus
</region>

<region>
end=45600
fade_out=44750
hivel=127
key=B4
lovel=0
sample=Violas_staccato_MF_B4_RR2.opus
</region>

<region>
end=45600
fade_out=44750
hivel=127
key=B5
lovel=0
sample=Violas_staccato_MF_B5_RR2.opus
</region>

<region>
end=45600
fade_out=44750
hivel=127
key=C#3
lovel=0
sample=Violas_staccato_MF_C#3_RR2.opus
</region>

<region>
end=45600
fade_out=44750
hivel=127
key=C#4
lovel=0
sample=Violas_staccato_MF_C#4_RR2.opus
</region>

<region>
end=45600
fade_out=44750
hivel=127
key=C#5
lovel=0
sample=Violas_staccato_MF_C#5_RR2.opus
</region>

<region>
end=45600
fade_out=44750
hivel=127
key=C3
lovel=0
sample=Violas_staccato_MF_C3_RR2.opus
</region>

<region>
end=41930
fade_out=41080
hivel=127
key=C4
lovel=0
offset=5884
sample=Violas_staccato_MF_C4_RR2.opus
</region>

<region>
end=45600
fade_out=44750
hivel=127
key=C5
lovel=0
sample=Violas_staccato_MF_C5_RR2.opus
</region>

<region>
end=45600
fade_out=44750
hikey=C#6
hivel=127
lokey=C6
lovel=0
pitch_keycenter=C6
sample=Violas_staccato_MF_C6_RR2.opus
</region>

<region>
end=45600
fade_out=44750
hivel=127
key=D#3
lovel=0
sample=Violas_staccato_MF_D#3_RR2.opus
</region>

<region>
end=45600
fade_out=44750
hivel=127
key=D#4
lovel=0
sample=Violas_staccato_MF_D#4_RR2.opus
</region>

<region>
end=45600
fade_out=44750
hivel=127
key=D#5
lovel=0
sample=Violas_staccato_MF_D#5_RR2.opus
</region>

<region>
end=45600
fade_out=44750
hivel=127
key=D3
lovel=0
offset=5871
sample=Violas_staccato_MF_D3_RR2.opus
</region>

<region>
end=45600
fade_out=44750
hivel=127
key=D4
lovel=0
offset=5210
sample=Violas_staccato_MF_D4_RR2.opus
</region>

<region>
end=45600
fade_out=44750
hivel=127
key=D5
lovel=0
sample=Violas_staccato_MF_D5_RR2.opus
</region>

<region>
end=45600
fade_out=44750
hivel=127
key=E3
lovel=0
offset=3108
sample=Violas_staccato_MF_E3_RR2.opus
</region>

<region>
end=45600
fade_out=44750
hivel=127
key=E4
lovel=0
sample=Violas_staccato_MF_E4_RR2.opus
</region>

<region>
end=45600
fade_out=44750
hivel=127
key=E5
lovel=0
sample=Violas_staccato_MF_E5_RR2.opus
</region>

<region>
end=45600
fade_out=44750
hivel=127
key=F#3
lovel=0
sample=Violas_staccato_MF_F#3_RR2.opus
</region>

<region>
end=45600
fade_out=44750
hivel=127
key=F#4
lovel=0
sample=Violas_staccato_MF_F#4_RR2.opus
</region>

<region>
end=45600
fade_out=44750
hivel=127
key=F#5
lovel=0
sample=Violas_staccato_MF_F#5_RR2.opus
</region>

<region>
end=45600
fade_out=44750
hivel=127
key=F3
lovel=0
sample=Violas_staccato_MF_F3_RR2.opus
</region>

<region>
end=45600
fade_out=44750
hivel=127
key=F4
lovel=0
sample=Violas_staccato_MF_F4_RR2.opus
</region>

<region>
end=45600
fade_out=44750
hivel=127
key=F5
lovel=0
sample=Violas_staccato_MF_F5_RR2.opus
</region>

<region>
end=45600
fade_out=44750
hivel=127
key=G#3
lovel=0
sample=Violas_staccato_MF_G#3_RR2.opus
</region>

<region>
end=45600
fade_out=44750
hivel=127
key=G#4
lovel=0
sample=Violas_staccato_MF_G#4_RR2.opus
</region>

<region>
end=45600
fade_out=44750
hivel=127
key=G#5
lovel=0
sample=Violas_staccato_MF_G#5_RR2.opus
</region>

<region>
end=45600
fade_out=44750
hivel=127
key=G3
lovel=0
offset=4702
sample=Violas_staccato_MF_G3_RR2.opus
</region>

<region>
end=45600
fade_out=44750
hivel=127
key=G4
lovel=0
sample=Violas_staccato_MF_G4_RR2.opus
</region>

<region>
end=45600
fade_out=44750
hivel=127
key=G5
lovel=0
offset=3389
sample=Violas_staccato_MF_G5_RR2.opus
</region>
</group>

<group>
group_label=RR2_85-127
seq_length=4
seq_position=2
xf_cccurve=gain
xfin_hicc1=127
xfin_locc1=85
xfout_hicc1=127
xfout_locc1=127

<region>
end=45600
fade_out=44750
hivel=127
key=A#3
lovel=0
sample=Violas_staccato_FF_A#3_RR2.opus
</region>

<region>
end=45600
fade_out=44750
hivel=127
key=A#4
lovel=0
sample=Violas_staccato_FF_A#4_RR2.opus
</region>

<region>
end=45600
fade_out=44750
hivel=127
key=A#5
lovel=0
sample=Violas_staccato_FF_A#5_RR2.opus
</region>

<region>
end=45600
fade_out=44750
hivel=127
key=A3
lovel=0
sample=Violas_staccato_FF_A3_RR2.opus
</region>

<region>
end=45600
fade_out=44750
hivel=127
key=A4
lovel=0
sample=Violas_staccato_FF_A4_RR2.opus
</region>

<region>
end=45600
fade_out=44750
hivel=127
key=A5
lovel=0
sample=Violas_staccato_FF_A5_RR2.opus
</region>

<region>
end=45600
fade_out=44750
hivel=127
key=B3
lovel=0
sample=Violas_staccato_FF_B3_RR2.opus
</region>

<region>
end=45600
fade_out=44750
hivel=127
key=B4
lovel=0
sample=Violas_staccato_FF_B4_RR2.opus
</region>

<region>
end=45600
fade_out=44750
hivel=127
key=B5
lovel=0
sample=Violas_staccato_FF_B5_RR2.opus
</region>

<region>
end=45600
fade_out=44750
hivel=127
key=C#3
lovel=0
sample=Violas_staccato_FF_C#3_RR2.opus
</region>

<region>
end=45600
fade_out=44750
hivel=127
key=C#4
lovel=0
sample=Violas_staccato_FF_C#4_RR2.opus
</region>

<region>
end=45600
fade_out=44750
hivel=127
key=C#5
lovel=0
sample=Violas_staccato_FF_C#5_RR2.opus
</region>

<region>
end=45600
fade_out=44750
hivel=127
key=C3
lovel=0
sample=Violas_staccato_FF_C3_RR2.opus
</region>

<region>
end=45600
fade_out=44750
hivel=127
key=C4
lovel=0
sample=Violas_staccato_FF_C4_RR2.opus
</region>

<region>
end=45600
fade_out=44750
hivel=127
key=C5
lovel=0
sample=Violas_staccato_FF_C5_RR2.opus
</region>

<region>
end=45600
fade_out=44750
hikey=C#6
hivel=127
lokey=C6
lovel=0
pitch_keycenter=C6
sample=Violas_staccato_FF_C6_RR2.opus
</region>

<region>
end=45600
fade_out=44750
hivel=127
key=D#3
lovel=0
sample=Violas_staccato_FF_D#3_RR2.opus
</region>

<region>
end=45600
fade_out=44750
hivel=127
key=D#4
lovel=0
sample=Violas_staccato_FF_D#4_RR2.opus
</region>

<region>
end=45600
fade_out=44750
hivel=127
key=D#5
lovel=0
sample=Violas_staccato_FF_D#5_RR2.opus
</region>

<region>
end=45600
fade_out=44750
hivel=127
key=D3
lovel=0
offset=3426
sample=Violas_staccato_FF_D3_RR2.opus
</region>

<region>
end=45600
fade_out=44750
hivel=127
key=D4
lovel=0
sample=Violas_staccato_FF_D4_RR2.opus
</region>

<region>
end=45600
fade_out=44750
hivel=127
key=D5
lovel=0
sample=Violas_staccato_FF_D5_RR2.opus
</region>

<region>
end=47874
fade_out=47024
hivel=127
key=E3
lovel=0
sample=Violas_staccato_FF_E3_RR2.opus
</region>

<region>
end=45600
fade_out=44750
hivel=127
key=E4
lovel=0
sample=Violas_staccato_FF_E4_RR2.opus
</region>

<region>
end=45600
fade_out=44750
hivel=127
key=E5
lovel=0
sample=Violas_staccato_FF_E5_RR2.opus
</region>

<region>
end=44484
fade_out=43634
hivel=127
key=F#3
lovel=0
sample=Violas_staccato_FF_F#3_RR2.opus
</region>

<region>
end=45600
fade_out=44750
hivel=127
key=F#4
lovel=0
sample=Violas_staccato_FF_F#4_RR2.opus
</region>

<region>
end=45600
fade_out=44750
hivel=127
key=F#5
lovel=0
sample=Violas_staccato_FF_F#5_RR2.opus
</region>

<region>
end=45600
fade_out=44750
hivel=127
key=F3
lovel=0
sample=Violas_staccato_FF_F3_RR2.opus
</region>

<region>
end=45600
fade_out=44750
hivel=127
key=F4
lovel=0
sample=Violas_staccato_FF_F4_RR2.opus
</region>

<region>
end=45600
fade_out=44750
hivel=127
key=F5
lovel=0
sample=Violas_staccato_FF_F5_RR2.opus
</region>

<region>
end=45600
fade_out=44750
hivel=127
key=G#3
lovel=0
sample=Violas_staccato_FF_G#3_RR2.opus
</region>

<region>
end=45600
fade_out=44750
hivel=127
key=G#4
lovel=0
sample=Violas_staccato_FF_G#4_RR2.opus
</region>

<region>
end=45600
fade_out=44750
hivel=127
key=G#5
lovel=0
sample=Violas_staccato_FF_G#5_RR2.opus
</region>

<region>
end=45600
fade_out=44750
hivel=127
key=G3
lovel=0
offset=644
sample=Violas_staccato_FF_G3_RR2.opus
</region>

<region>
end=45600
fade_out=44750
hivel=127
key=G4
lovel=0
sample=Violas_staccato_FF_G4_RR2.opus
</region>

<region>
end=45600
fade_out=44750
hivel=127
key=G5
lovel=0
sample=Violas_staccato_FF_G5_RR2.opus
</region>
</group>

<group>
group_label=RR3_0-42
seq_length=4
seq_position=3
xf_cccurve=gain
xfin_hicc1=42
xfout_hicc1=84
xfout_locc1=42

<region>
end=45600
fade_out=44750
hivel=127
key=A#3
lovel=0
offset=3918
sample=Violas_staccato_PP_A#3_RR3.opus
</region>

<region>
end=45600
fade_out=44750
hivel=127
key=A#4
lovel=0
sample=Violas_staccato_PP_A#4_RR3.opus
</region>

<region>
end=45600
fade_out=44750
hivel=127
key=A#5
lovel=0
sample=Violas_staccato_PP_A#5_RR3.opus
</region>

<region>
end=45600
fade_out=44750
hivel=127
key=A3
lovel=0
sample=Violas_staccato_PP_A3_RR3.opus
</region>

<region>
end=45600
fade_out=44750
hivel=127
key=A4
lovel=0
offset=1755
sample=Violas_staccato_PP_A4_RR3.opus
</region>

<region>
end=45600
fade_out=44750
hivel=127
key=A5
lovel=0
offset=3143
sample=Violas_staccato_PP_A5_RR3.opus
</region>

<region>
end=45600
fade_out=44750
hivel=127
key=B3
lovel=0
sample=Violas_staccato_PP_B3_RR3.opus
</region>

<region>
end=45600
fade_out=44750
hivel=127
key=B4
lovel=0
offset=3459
sample=Violas_staccato_PP_B4_RR3.opus
</region>

<region>
end=45600
fade_out=44750
hivel=127
key=B5
lovel=0
sample=Violas_staccato_PP_B5_RR3.opus
</region>

<region>
end=45600
fade_out=44750
hivel=127
key=C#3
lovel=0
sample=Violas_staccato_PP_C#3_RR3.opus
</region>

<region>
end=45600
fade_out=44750
hivel=127
key=C#4
lovel=0
sample=Violas_staccato_PP_C#4_RR3.opus
</region>

<region>
end=45600
fade_out=44750
hivel=127
key=C#5
lovel=0
sample=Violas_staccato_PP_C#5_RR3.opus
</region>

<region>
end=45600
fade_out=44750
hivel=127
key=C3
lovel=0
offset=5453
sample=Violas_staccato_PP_C3_RR3.opus
</region>

<region>
end=45600
fade_out=44750
hivel=127
key=C4
lovel=0
offset=2590
sample=Violas_staccato_PP_C4_RR3.opus
</region>

<region>
end=45600
fade_out=44750
hivel=127
key=C5
lovel=0
sample=Violas_staccato_PP_C5_RR3.opus
</region>

<region>
end=45600
fade_out=44750
hikey=C#6
hivel=127
lokey=C6
lovel=0
pitch_keycenter=C6
sample=Violas_staccato_PP_C6_RR3.opus
</region>

<region>
end=45600
fade_out=44750
hivel=127
key=D#3
lovel=0
offset=3639
sample=Violas_staccato_PP_D#3_RR3.opus
</region>

<region>
end=45600
fade_out=44750
hivel=127
key=D#4
lovel=0
sample=Violas_staccato_PP_D#4_RR3.opus
</region>

<region>
end=45600
fade_out=44750
hivel=127
key=D#5
lovel=0
sample=Violas_staccato_PP_D#5_RR3.opus
</region>

<region>
end=45600
fade_out=44750
hivel=127
key=D3
lovel=0
offset=3639
sample=Violas_staccato_PP_D3_RR3.opus
</region>

<region>
end=45600
fade_out=44750
hivel=127
key=D4
lovel=0
offset=3210
sample=Violas_staccato_PP_D4_RR3.opus
</region>

<region>
end=45600
fade_out=44750
hivel=127
key=D5
lovel=0
offset=2844
sample=Violas_staccato_PP_D5_RR3.opus
</region>

<region>
end=45600
fade_out=44750
hivel=127
key=E3
lovel=0
sample=Violas_staccato_PP_E3_RR3.opus
</region>

<region>
end=45600
fade_out=44750
hivel=127
key=E4
lovel=0
sample=Violas_staccato_PP_E4_RR3.opus
</region>

<region>
end=45600
fade_out=44750
hivel=127
key=E5
lovel=0
sample=Violas_staccato_PP_E5_RR3.opus
</region>

<region>
end=45600
fade_out=44750
hivel=127
key=F#3
lovel=0
sample=Violas_staccato_PP_F#3_RR3.opus
</region>

<region>
end=45600
fade_out=44750
hivel=127
key=F#4
lovel=0
sample=Violas_staccato_PP_F#4_RR3.opus
</region>

<region>
end=45600
fade_out=44750
hivel=127
key=F#5
lovel=0
sample=Violas_staccato_PP_F#5_RR3.opus
</region>

<region>
end=45600
fade_out=44750
hivel=127
key=F3
lovel=0
sample=Violas_staccato_PP_F3_RR3.opus
</region>

<region>
end=45600
fade_out=44750
hivel=127
key=F4
lovel=0
sample=Violas_staccato_PP_F4_RR3.opus
</region>

<region>
end=45600
fade_out=44750
hivel=127
key=F5
lovel=0
sample=Violas_staccato_PP_F5_RR3.opus
</region>

<region>
end=45600
fade_out=44750
hivel=127
key=G#3
lovel=0
sample=Violas_staccato_PP_G#3_RR3.opus
</region>

<region>
end=45600
fade_out=44750
hivel=127
key=G#4
lovel=0
sample=Violas_staccato_PP_G#4_RR3.opus
</region>

<region>
end=45600
fade_out=44750
hivel=127
key=G#5
lovel=0
sample=Violas_staccato_PP_G#5_RR3.opus
</region>

<region>
end=45600
fade_out=44750
hivel=127
key=G3
lovel=0
sample=Violas_staccato_PP_G3_RR3.opus
</region>

<region>
end=45600
fade_out=44750
hivel=127
key=G4
lovel=0
offset=3271
sample=Violas_staccato_PP_G4_RR3.opus
</region>

<region>
end=45600
fade_out=44750
hivel=127
key=G5
lovel=0
sample=Violas_staccato_PP_G5_RR3.opus
</region>
</group>

<group>
group_label=RR3_43-84
seq_length=4
seq_position=3
xf_cccurve=gain
xfin_hicc1=84
xfin_locc1=43
xfout_hicc1=125
xfout_locc1=84

<region>
end=45600
fade_out=44750
hivel=127
key=A#3
lovel=0
sample=Violas_staccato_MF_A#3_RR3.opus
</region>

<region>
end=45600
fade_out=44750
hivel=127
key=A#4
lovel=0
sample=Violas_staccato_MF_A#4_RR3.opus
</region>

<region>
end=45600
fade_out=44750
hivel=127
key=A#5
lovel=0
sample=Violas_staccato_MF_A#5_RR3.opus
</region>

<region>
end=45600
fade_out=44750
hivel=127
key=A3
lovel=0
sample=Violas_staccato_MF_A3_RR3.opus
</region>

<region>
end=45600
fade_out=44750
hivel=127
key=A4
lovel=0
offset=5641
sample=Violas_staccato_MF_A4_RR3.opus
</region>

<region>
end=45600
fade_out=44750
hivel=127
key=A5
lovel=0
sample=Violas_staccato_MF_A5_RR3.opus
</region>

<region>
end=45600
fade_out=44750
hivel=127
key=B3
lovel=0
sample=Violas_staccato_MF_B3_RR3.opus
</region>

<region>
end=45600
fade_out=44750
hivel=127
key=B4
lovel=0
offset=1251
sample=Violas_staccato_MF_B4_RR3.opus
</region>

<region>
end=45600
fade_out=44750
hivel=127
key=B5
lovel=0
sample=Violas_staccato_MF_B5_RR3.opus
</region>

<region>
end=45600
fade_out=44750
hivel=127
key=C#3
lovel=0
sample=Violas_staccato_MF_C#3_RR3.opus
</region>

<region>
end=45600
fade_out=44750
hivel=127
key=C#4
lovel=0
offset=3624
sample=Violas_staccato_MF_C#4_RR3.opus
</region>

<region>
end=45600
fade_out=44750
hivel=127
key=C#5
lovel=0
sample=Violas_staccato_MF_C#5_RR3.opus
</region>

<region>
end=45600
fade_out=44750
hivel=127
key=C3
lovel=0
offset=3205
sample=Violas_staccato_MF_C3_RR3.opus
</region>

<region>
end=48583
fade_out=47733
hivel=127
key=C4
lovel=0
offset=7123
sample=Violas_staccato_MF_C4_RR3.opus
</region>

<region>
end=45600
fade_out=44750
hivel=127
key=C5
lovel=0
offset=4470
sample=Violas_staccato_MF_C5_RR3.opus
</region>

<region>
end=45600
fade_out=44750
hikey=C#6
hivel=127
lokey=C6
lovel=0
pitch_keycenter=C6
sample=Violas_staccato_MF_C6_RR3.opus
</region>

<region>
end=45600
fade_out=44750
hivel=127
key=D#3
lovel=0
sample=Violas_staccato_MF_D#3_RR3.opus
</region>

<region>
end=45600
fade_out=44750
hivel=127
key=D#4
lovel=0
sample=Violas_staccato_MF_D#4_RR3.opus
</region>

<region>
end=45600
fade_out=44750
hivel=127
key=D#5
lovel=0
sample=Violas_staccato_MF_D#5_RR3.opus
</region>

<region>
end=45600
fade_out=44750
hivel=127
key=D3
lovel=0
offset=4988
sample=Violas_staccato_MF_D3_RR3.opus
</region>

<region>
end=45600
fade_out=44750
hivel=127
key=D4
lovel=0
offset=4884
sample=Violas_staccato_MF_D4_RR3.opus
</region>

<region>
end=45600
fade_out=44750
hivel=127
key=D5
lovel=0
offset=1927
sample=Violas_staccato_MF_D5_RR3.opus
</region>

<region>
end=45600
fade_out=44750
hivel=127
key=E3
lovel=0
sample=Violas_staccato_MF_E3_RR3.opus
</region>

<region>
end=45600
fade_out=44750
hivel=127
key=E4
lovel=0
sample=Violas_staccato_MF_E4_RR3.opus
</region>

<region>
end=45600
fade_out=44750
hivel=127
key=E5
lovel=0
sample=Violas_staccato_MF_E5_RR3.opus
</region>

<region>
end=45600
fade_out=44750
hivel=127
key=F#3
lovel=0
sample=Violas_staccato_MF_F#3_RR3.opus
</region>

<region>
end=45600
fade_out=44750
hivel=127
key=F#4
lovel=0
sample=Violas_staccato_MF_F#4_RR3.opus
</region>

<region>
end=45600
fade_out=44750
hivel=127
key=F#5
lovel=0
sample=Violas_staccato_MF_F#5_RR3.opus
</region>

<region>
end=45600
fade_out=44750
hivel=127
key=F3
lovel=0
sample=Violas_staccato_MF_F3_RR3.opus
</region>

<region>
end=45600
fade_out=44750
hivel=127
key=F4
lovel=0
sample=Violas_staccato_MF_F4_RR3.opus
</region>

<region>
end=45600
fade_out=44750
hivel=127
key=F5
lovel=0
sample=Violas_staccato_MF_F5_RR3.opus
</region>

<region>
end=45600
fade_out=44750
hivel=127
key=G#3
lovel=0
sample=Violas_staccato_MF_G#3_RR3.opus
</region>

<region>
end=45600
fade_out=44750
hivel=127
key=G#4
lovel=0
sample=Violas_staccato_MF_G#4_RR3.opus
</region>

<region>
end=45600
fade_out=44750
hivel=127
key=G#5
lovel=0
sample=Violas_staccato_MF_G#5_RR3.opus
</region>

<region>
end=45600
fade_out=44750
hivel=127
key=G3
lovel=0
offset=2716
sample=Violas_staccato_MF_G3_RR3.opus
</region>

<region>
end=45600
fade_out=44750
hivel=127
key=G4
lovel=0
sample=Violas_staccato_MF_G4_RR3.opus
</region>

<region>
end=45600
fade_out=44750
hivel=127
key=G5
lovel=0
sample=Violas_staccato_MF_G5_RR3.opus
</region>
</group>

<group>
group_label=RR3_85-127
seq_length=4
seq_position=3
xf_cccurve=gain
xfin_hicc1=127
xfin_locc1=85
xfout_hicc1=127
xfout_locc1=127

<region>
end=45600
fade_out=44750
hivel=127
key=A#3
lovel=0
sample=Violas_staccato_FF_A#3_RR3.opus
</region>

<region>
end=45600
fade_out=44750
hivel=127
key=A#4
lovel=0
sample=Violas_staccato_FF_A#4_RR3.opus
</region>

<region>
end=45600
fade_out=44750
hivel=127
key=A#5
lovel=0
sample=Violas_staccato_FF_A#5_RR3.opus
</region>

<region>
end=45600
fade_out=44750
hivel=127
key=A3
lovel=0
sample=Violas_staccato_FF_A3_RR3.opus
</region>

<region>
end=45600
fade_out=44750
hivel=127
key=A4
lovel=0
sample=Violas_staccato_FF_A4_RR3.opus
</region>

<region>
end=45600
fade_out=44750
hivel=127
key=A5
lovel=0
sample=Violas_staccato_FF_A5_RR3.opus
</region>

<region>
end=49225
fade_out=48375
hivel=127
key=B3
lovel=0
sample=Violas_staccato_FF_B3_RR3.opus
</region>

<region>
end=45600
fade_out=44750
hivel=127
key=B4
lovel=0
sample=Violas_staccato_FF_B4_RR3.opus
</region>

<region>
end=45600
fade_out=44750
hivel=127
key=B5
lovel=0
sample=Violas_staccato_FF_B5_RR3.opus
</region>

<region>
end=45600
fade_out=44750
hivel=127
key=C#3
lovel=0
sample=Violas_staccato_FF_C#3_RR3.opus
</region>

<region>
end=45600
fade_out=44750
hivel=127
key=C#4
lovel=0
sample=Violas_staccato_FF_C#4_RR3.opus
</region>

<region>
end=45600
fade_out=44750
hivel=127
key=C#5
lovel=0
sample=Violas_staccato_FF_C#5_RR3.opus
</region>

<region>
end=45600
fade_out=44750
hivel=127
key=C3
lovel=0
sample=Violas_staccato_FF_C3_RR3.opus
</region>

<region>
end=50186
fade_out=49336
hivel=127
key=C4
lovel=0
offset=5399
sample=Violas_staccato_FF_C4_RR3.opus
</region>

<region>
end=45600
fade_out=44750
hivel=127
key=C5
lovel=0
sample=Violas_staccato_FF_C5_RR3.opus
</region>

<region>
end=45600
fade_out=44750
hikey=C#6
hivel=127
lokey=C6
lovel=0
pitch_keycenter=C6
sample=Violas_staccato_FF_C6_RR3.opus
</region>

<region>
end=45600
fade_out=44750
hivel=127
key=D#3
lovel=0
sample=Violas_staccato_FF_D#3_RR3.opus
</region>

<region>
end=45600
fade_out=44750
hivel=127
key=D#4
lovel=0
sample=Violas_staccato_FF_D#4_RR3.opus
</region>

<region>
end=45600
fade_out=44750
hivel=127
key=D#5
lovel=0
sample=Violas_staccato_FF_D#5_RR3.opus
</region>

<region>
end=45600
fade_out=44750
hivel=127
key=D3
lovel=0
offset=1288
sample=Violas_staccato_FF_D3_RR3.opus
</region>

<region>
end=45600
fade_out=44750
hivel=127
key=D4
lovel=0
offset=599
sample=Violas_staccato_FF_D4_RR3.opus
</region>

<region>
end=45600
fade_out=44750
hivel=127
key=D5
lovel=0
sample=Violas_staccato_FF_D5_RR3.opus
</region>

<region>
end=45600
fade_out=44750
hivel=127
key=E3
lovel=0
offset=479
sample=Violas_staccato_FF_E3_RR3.opus
</region>

<region>
end=45600
fade_out=44750
hivel=127
key=E4
lovel=0
sample=Violas_staccato_FF_E4_RR3.opus
</region>

<region>
end=45600
fade_out=44750
hivel=127
key=E5
lovel=0
sample=Violas_staccato_FF_E5_RR3.opus
</region>

<region>
end=45600
fade_out=44750
hivel=127
key=F#3
lovel=0
sample=Violas_staccato_FF_F#3_RR3.opus
</region>

<region>
end=45600
fade_out=44750
hivel=127
key=F#4
lovel=0
sample=Violas_staccato_FF_F#4_RR3.opus
</region>

<region>
end=45600
fade_out=44750
hivel=127
key=F#5
lovel=0
sample=Violas_staccato_FF_F#5_RR3.opus
</region>

<region>
end=45600
fade_out=44750
hivel=127
key=F3
lovel=0
sample=Violas_staccato_FF_F3_RR3.opus
</region>

<region>
end=45600
fade_out=44750
hivel=127
key=F4
lovel=0
sample=Violas_staccato_FF_F4_RR3.opus
</region>

<region>
end=45600
fade_out=44750
hivel=127
key=F5
lovel=0
sample=Violas_staccato_FF_F5_RR3.opus
</region>

<region>
end=45600
fade_out=44750
hivel=127
key=G#3
lovel=0
sample=Violas_staccato_FF_G#3_RR3.opus
</region>

<region>
end=45600
fade_out=44750
hivel=127
key=G#4
lovel=0
sample=Violas_staccato_FF_G#4_RR3.opus
</region>

<region>
end=45600
fade_out=44750
hivel=127
key=G#5
lovel=0
sample=Violas_staccato_FF_G#5_RR3.opus
</region>

<region>
end=45600
fade_out=44750
hivel=127
key=G3
lovel=0
sample=Violas_staccato_FF_G3_RR3.opus
</region>

<region>
end=45600
fade_out=44750
hivel=127
key=G4
lovel=0
sample=Violas_staccato_FF_G4_RR3.opus
</region>

<region>
end=45600
fade_out=44750
hivel=127
key=G5
lovel=0
sample=Violas_staccato_FF_G5_RR3.opus
</region>
</group>

<group>
group_label=RR4_0-42
seq_length=4
seq_position=4
xf_cccurve=gain
xfin_hicc1=42
xfout_hicc1=84
xfout_locc1=42

<region>
end=45600
fade_out=44750
hivel=127
key=A#3
lovel=0
sample=Violas_staccato_PP_A#3_RR4.opus
</region>

<region>
end=45600
fade_out=44750
hivel=127
key=A#4
lovel=0
sample=Violas_staccato_PP_A#4_RR4.opus
</region>

<region>
end=45600
fade_out=44750
hivel=127
key=A#5
lovel=0
sample=Violas_staccato_PP_A#5_RR4.opus
</region>

<region>
end=45600
fade_out=44750
hivel=127
key=A3
lovel=0
sample=Violas_staccato_PP_A3_RR4.opus
</region>

<region>
end=45600
fade_out=44750
hivel=127
key=A4
lovel=0
sample=Violas_staccato_PP_A4_RR4.opus
</region>

<region>
end=45600
fade_out=44750
hivel=127
key=A5
lovel=0
offset=3402
sample=Violas_staccato_PP_A5_RR4.opus
</region>

<region>
end=45600
fade_out=44750
hivel=127
key=B3
lovel=0
sample=Violas_staccato_PP_B3_RR4.opus
</region>

<region>
end=45600
fade_out=44750
hivel=127
key=B4
lovel=0
sample=Violas_staccato_PP_B4_RR4.opus
</region>

<region>
end=45600
fade_out=44750
hivel=127
key=B5
lovel=0
offset=3758
sample=Violas_staccato_PP_B5_RR4.opus
</region>

<region>
end=45600
fade_out=44750
hivel=127
key=C#3
lovel=0
sample=Violas_staccato_PP_C#3_RR4.opus
</region>

<region>
end=45600
fade_out=44750
hivel=127
key=C#4
lovel=0
sample=Violas_staccato_PP_C#4_RR4.opus
</region>

<region>
end=45600
fade_out=44750
hivel=127
key=C#5
lovel=0
sample=Violas_staccato_PP_C#5_RR4.opus
</region>

<region>
end=45600
fade_out=44750
hivel=127
key=C3
lovel=0
offset=4401
sample=Violas_staccato_PP_C3_RR4.opus
</region>

<region>
end=45600
fade_out=44750
hivel=127
key=C4
lovel=0
offset=2861
sample=Violas_staccato_PP_C4_RR4.opus
</region>

<region>
end=45600
fade_out=44750
hivel=127
key=C5
lovel=0
offset=3761
sample=Violas_staccato_PP_C5_RR4.opus
</region>

<region>
end=45600
fade_out=44750
hikey=C#6
hivel=127
lokey=C6
lovel=0
pitch_keycenter=C6
sample=Violas_staccato_PP_C6_RR4.opus
</region>

<region>
end=45600
fade_out=44750
hivel=127
key=D#3
lovel=0
offset=2592
sample=Violas_staccato_PP_D#3_RR4.opus
</region>

<region>
end=45600
fade_out=44750
hivel=127
key=D#4
lovel=0
sample=Violas_staccato_PP_D#4_RR4.opus
</region>

<region>
end=45600
fade_out=44750
hivel=127
key=D#5
lovel=0
sample=Violas_staccato_PP_D#5_RR4.opus
</region>

<region>
end=45600
fade_out=44750
hivel=127
key=D3
lovel=0
offset=4368
sample=Violas_staccato_PP_D3_RR4.opus
</region>

<region>
end=45600
fade_out=44750
hivel=127
key=D4
lovel=0
offset=2861
sample=Violas_staccato_PP_D4_RR4.opus
</region>

<region>
end=45600
fade_out=44750
hivel=127
key=D5
lovel=0
offset=3678
sample=Violas_staccato_PP_D5_RR4.opus
</region>

<region>
end=45600
fade_out=44750
hivel=127
key=E3
lovel=0
sample=Violas_staccato_PP_E3_RR4.opus
</region>

<region>
end=45600
fade_out=44750
hivel=127
key=E4
lovel=0
sample=Violas_staccato_PP_E4_RR4.opus
</region>

<region>
end=45600
fade_out=44750
hivel=127
key=E5
lovel=0
sample=Violas_staccato_PP_E5_RR4.opus
</region>

<region>
end=45600
fade_out=44750
hivel=127
key=F#3
lovel=0
offset=4369
sample=Violas_staccato_PP_F#3_RR4.opus
</region>

<region>
end=45600
fade_out=44750
hivel=127
key=F#4
lovel=0
sample=Violas_staccato_PP_F#4_RR4.opus
</region>

<region>
end=45600
fade_out=44750
hivel=127
key=F#5
lovel=0
sample=Violas_staccato_PP_F#5_RR4.opus
</region>

<region>
end=45600
fade_out=44750
hivel=127
key=F3
lovel=0
sample=Violas_staccato_PP_F3_RR4.opus
</region>

<region>
end=45600
fade_out=44750
hivel=127
key=F4
lovel=0
sample=Violas_staccato_PP_F4_RR4.opus
</region>

<region>
end=45600
fade_out=44750
hivel=127
key=F5
lovel=0
sample=Violas_staccato_PP_F5_RR4.opus
</region>

<region>
end=45600
fade_out=44750
hivel=127
key=G#3
lovel=0
offset=4833
sample=Violas_staccato_PP_G#3_RR4.opus
</region>

<region>
end=45600
fade_out=44750
hivel=127
key=G#4
lovel=0
sample=Violas_staccato_PP_G#4_RR4.opus
</region>

<region>
end=45600
fade_out=44750
hivel=127
key=G#5
lovel=0
sample=Violas_staccato_PP_G#5_RR4.opus
</region>

<region>
end=45600
fade_out=44750
hivel=127
key=G3
lovel=0
offset=2719
sample=Violas_staccato_PP_G3_RR4.opus
</region>

<region>
end=45600
fade_out=44750
hivel=127
key=G4
lovel=0
sample=Violas_staccato_PP_G4_RR4.opus
</region>

<region>
end=45600
fade_out=44750
hivel=127
key=G5
lovel=0
sample=Violas_staccato_PP_G5_RR4.opus
</region>
</group>

<group>
group_label=RR4_43-84
seq_length=4
seq_position=4
xf_cccurve=gain
xfin_hicc1=84
xfin_locc1=43
xfout_hicc1=125
xfout_locc1=84

<region>
end=45600
fade_out=44750
hivel=127
key=A#3
lovel=0
sample=Violas_staccato_MF_A#3_RR4.opus
</region>

<region>
end=45600
fade_out=44750
hivel=127
key=A#4
lovel=0
sample=Violas_staccato_MF_A#4_RR4.opus
</region>

<region>
end=45600
fade_out=44750
hivel=127
key=A#5
lovel=0
sample=Violas_staccato_MF_A#5_RR4.opus
</region>

<region>
end=45600
fade_out=44750
hivel=127
key=A3
lovel=0
sample=Violas_staccato_MF_A3_RR4.opus
</region>

<region>
end=45600
fade_out=44750
hivel=127
key=A4
lovel=0
sample=Violas_staccato_MF_A4_RR4.opus
</region>

<region>
end=45600
fade_out=44750
hivel=127
key=A5
lovel=0
sample=Violas_staccato_MF_A5_RR4.opus
</region>

<region>
end=45600
fade_out=44750
hivel=127
key=B3
lovel=0
sample=Violas_staccato_MF_B3_RR4.opus
</region>

<region>
end=45600
fade_out=44750
hivel=127
key=B4
lovel=0
offset=4229
sample=Violas_staccato_MF_B4_RR4.opus
</region>

<region>
end=45600
fade_out=44750
hivel=127
key=B5
lovel=0
sample=Violas_staccato_MF_B5_RR4.opus
</region>

<region>
end=45600
fade_out=44750
hivel=127
key=C#3
lovel=0
sample=Violas_staccato_MF_C#3_RR4.opus
</region>

<region>
end=45600
fade_out=44750
hivel=127
key=C#4
lovel=0
sample=Violas_staccato_MF_C#4_RR4.opus
</region>

<region>
end=45600
fade_out=44750
hivel=127
key=C#5
lovel=0
sample=Violas_staccato_MF_C#5_RR4.opus
</region>

<region>
end=45600
fade_out=44750
hivel=127
key=C3
lovel=0
offset=3334
sample=Violas_staccato_MF_C3_RR4.opus
</region>

<region>
end=45600
fade_out=44750
hivel=127
key=C4
lovel=0
offset=5830
sample=Violas_staccato_MF_C4_RR4.opus
</region>

<region>
end=45600
fade_out=44750
hivel=127
key=C5
lovel=0
offset=4578
sample=Violas_staccato_MF_C5_RR4.opus
</region>

<region>
end=45600
fade_out=44750
hikey=C#6
hivel=127
lokey=C6
lovel=0
pitch_keycenter=C6
sample=Violas_staccato_MF_C6_RR4.opus
</region>

<region>
end=45600
fade_out=44750
hivel=127
key=D#3
lovel=0
offset=3562
sample=Violas_staccato_MF_D#3_RR4.opus
</region>

<region>
end=45600
fade_out=44750
hivel=127
key=D#4
lovel=0
sample=Violas_staccato_MF_D#4_RR4.opus
</region>

<region>
end=45600
fade_out=44750
hivel=127
key=D#5
lovel=0
sample=Violas_staccato_MF_D#5_RR4.opus
</region>

<region>
end=45600
fade_out=44750
hivel=127
key=D3
lovel=0
offset=7458
sample=Violas_staccato_MF_D3_RR4.opus
</region>

<region>
end=45600
fade_out=44750
hivel=127
key=D4
lovel=0
offset=4572
sample=Violas_staccato_MF_D4_RR4.opus
</region>

<region>
end=45600
fade_out=44750
hivel=127
key=D5
lovel=0
sample=Violas_staccato_MF_D5_RR4.opus
</region>

<region>
end=45600
fade_out=44750
hivel=127
key=E3
lovel=0
offset=4530
sample=Violas_staccato_MF_E3_RR4.opus
</region>

<region>
end=45600
fade_out=44750
hivel=127
key=E4
lovel=0
sample=Violas_staccato_MF_E4_RR4.opus
</region>

<region>
end=45600
fade_out=44750
hivel=127
key=E5
lovel=0
sample=Violas_staccato_MF_E5_RR4.opus
</region>

<region>
end=45600
fade_out=44750
hivel=127
key=F#3
lovel=0
sample=Violas_staccato_MF_F#3_RR4.opus
</region>

<region>
end=45600
fade_out=44750
hivel=127
key=F#4
lovel=0
sample=Violas_staccato_MF_F#4_RR4.opus
</region>

<region>
end=45600
fade_out=44750
hivel=127
key=F#5
lovel=0
sample=Violas_staccato_MF_F#5_RR4.opus
</region>

<region>
end=45600
fade_out=44750
hivel=127
key=F3
lovel=0
sample=Violas_staccato_MF_F3_RR4.opus
</region>

<region>
end=45600
fade_out=44750
hivel=127
key=F4
lovel=0
sample=Violas_staccato_MF_F4_RR4.opus
</region>

<region>
end=45600
fade_out=44750
hivel=127
key=F5
lovel=0
sample=Violas_staccato_MF_F5_RR4.opus
</region>

<region>
end=45600
fade_out=44750
hivel=127
key=G#3
lovel=0
offset=4846
sample=Violas_staccato_MF_G#3_RR4.opus
</region>

<region>
end=45600
fade_out=44750
hivel=127
key=G#4
lovel=0
sample=Violas_staccato_MF_G#4_RR4.opus
</region>

<region>
end=45600
fade_out=44750
hivel=127
key=G#5
lovel=0
sample=Violas_staccato_MF_G#5_RR4.opus
</region>

<region>
end=45600
fade_out=44750
hivel=127
key=G3
lovel=0
offset=5192
sample=Violas_staccato_MF_G3_RR4.opus
</region>

<region>
end=45600
fade_out=44750
hivel=127
key=G4
lovel=0
sample=Violas_staccato_MF_G4_RR4.opus
</region>

<region>
end=45600
fade_out=44750
hivel=127
key=G5
lovel=0
offset=4453
sample=Violas_staccato_MF_G5_RR4.opus
</region>
</group>

<group>
group_label=RR4_85-127
seq_length=4
seq_position=4
xf_cccurve=gain
xfin_hicc1=127
xfin_locc1=85
xfout_hicc1=127
xfout_locc1=127

<region>
end=45600
fade_out=44750
hivel=127
key=A#3
lovel=0
sample=Violas_staccato_FF_A#3_RR4.opus
</region>

<region>
end=45600
fade_out=44750
hivel=127
key=A#4
lovel=0
sample=Violas_staccato_FF_A#4_RR4.opus
</region>

<region>
end=45600
fade_out=44750
hivel=127
key=A#5
lovel=0
sample=Violas_staccato_FF_A#5_RR4.opus
</region>

<region>
end=46727
fade_out=45877
hivel=127
key=A3
lovel=0
sample=Violas_staccato_FF_A3_RR4.opus
</region>

<region>
end=45600
fade_out=44750
hivel=127
key=A4
lovel=0
sample=Violas_staccato_FF_A4_RR4.opus
</region>

<region>
end=45600
fade_out=44750
hivel=127
key=A5
lovel=0
sample=Violas_staccato_FF_A5_RR4.opus
</region>

<region>
end=45600
fade_out=44750
hivel=127
key=B3
lovel=0
sample=Violas_staccato_FF_B3_RR4.opus
</region>

<region>
end=45600
fade_out=44750
hivel=127
key=B4
lovel=0
sample=Violas_staccato_FF_B4_RR4.opus
</region>

<region>
end=45600
fade_out=44750
hivel=127
key=B5
lovel=0
sample=Violas_staccato_FF_B5_RR4.opus
</region>

<region>
end=45600
fade_out=44750
hivel=127
key=C#3
lovel=0
offset=665
sample=Violas_staccato_FF_C#3_RR4.opus
</region>

<region>
end=45600
fade_out=44750
hivel=127
key=C#4
lovel=0
sample=Violas_staccato_FF_C#4_RR4.opus
</region>

<region>
end=45600
fade_out=44750
hivel=127
key=C#5
lovel=0
sample=Violas_staccato_FF_C#5_RR4.opus
</region>

<region>
end=45600
fade_out=44750
hivel=127
key=C3
lovel=0
sample=Violas_staccato_FF_C3_RR4.opus
</region>

<region>
end=45600
fade_out=44750
hivel=127
key=C4
lovel=0
sample=Violas_staccato_FF_C4_RR4.opus
</region>

<region>
end=45600
fade_out=44750
hivel=127
key=C5
lovel=0
sample=Violas_staccato_FF_C5_RR4.opus
</region>

<region>
end=45600
fade_out=44750
hikey=C#6
hivel=127
lokey=C6
lovel=0
pitch_keycenter=C6
sample=Violas_staccato_FF_C6_RR4.opus
</region>

<region>
end=45600
fade_out=44750
hivel=127
key=D#3
lovel=0
sample=Violas_staccato_FF_D#3_RR4.opus
</region>

<region>
end=45600
fade_out=44750
hivel=127
key=D#4
lovel=0
sample=Violas_staccato_FF_D#4_RR4.opus
</region>

<region>
end=45600
fade_out=44750
hivel=127
key=D#5
lovel=0
sample=Violas_staccato_FF_D#5_RR4.opus
</region>

<region>
end=45600
fade_out=44750
hivel=127
key=D3
lovel=0
sample=Violas_staccato_FF_D3_RR4.opus
</region>

<region>
end=45600
fade_out=44750
hivel=127
key=D4
lovel=0
sample=Violas_staccato_FF_D4_RR4.opus
</region>

<region>
end=45600
fade_out=44750
hivel=127
key=D5
lovel=0
sample=Violas_staccato_FF_D5_RR4.opus
</region>

<region>
end=45600
fade_out=44750
hivel=127
key=E3
lovel=0
sample=Violas_staccato_FF_E3_RR4.opus
</region>

<region>
end=45600
fade_out=44750
hivel=127
key=E4
lovel=0
sample=Violas_staccato_FF_E4_RR4.opus
</region>

<region>
end=45600
fade_out=44750
hivel=127
key=E5
lovel=0
sample=Violas_staccato_FF_E5_RR4.opus
</region>

<region>
end=45600
fade_out=44750
hivel=127
key=F#3
lovel=0
sample=Violas_staccato_FF_F#3_RR4.opus
</region>

<region>
end=45600
fade_out=44750
hivel=127
key=F#4
lovel=0
sample=Violas_staccato_FF_F#4_RR4.opus
</region>

<region>
end=45600
fade_out=44750
hivel=127
key=F#5
lovel=0
sample=Violas_staccato_FF_F#5_RR4.opus
</region>

<region>
end=45600
fade_out=44750
hivel=127
key=F3
lovel=0
sample=Violas_staccato_FF_F3_RR4.opus
</region>

<region>
end=45600
fade_out=44750
hivel=127
key=F4
lovel=0
sample=Violas_staccato_FF_F4_RR4.opus
</region>

<region>
end=45600
fade_out=44750
hivel=127
key=F5
lovel=0
sample=Violas_staccato_FF_F5_RR4.opus
</region>

<region>
end=45600
fade_out=44750
hivel=127
key=G#3
lovel=0
sample=Violas_staccato_FF_G#3_RR4.opus
</region>

<region>
end=45600
fade_out=44750
hivel=127
key=G#4
lovel=0
sample=Violas_staccato_FF_G#4_RR4.opus
</region>

<region>
end=45600
fade_out=44750
hivel=127
key=G#5
lovel=0
sample=Violas_staccato_FF_G#5_RR4.opus
</region>

<region>
end=45600
fade_out=44750
hivel=127
key=G3
lovel=0
sample=Violas_staccato_FF_G3_RR4.opus
</region>

<region>
end=45600
fade_out=44750
hivel=127
key=G4
lovel=0
sample=Violas_staccato_FF_G4_RR4.opus
</region>

<region>
end=45600
fade_out=44750
hivel=127
key=G5
lovel=0
sample=Violas_staccato_FF_G5_RR4.opus
</region>
</group>